<svg width="38" height="31" viewBox="0 0 38 31" fill="none" xmlns="http://www.w3.org/2000/svg">
  <g clip-path="url(#clip0_1_93)">
    <path
      d="M37.5095 13.8062C37.4366 13.8791 37.3637 13.8791 37.3274 13.8791H35.506C35.3846 13.8791 35.2997 13.9398 35.2511 14.0611C34.9962 14.8625 34.7413 15.7006 34.4859 16.502C34.3039 17.1214 34.0852 17.777 33.9032 18.3964C33.8546 18.5177 33.7574 18.5784 33.6116 18.5784H2.10177C1.95598 18.5784 1.91977 18.5422 1.95598 18.3964C2.02888 18.1048 2.13799 17.8499 2.21088 17.5588C2.24709 17.413 2.28378 17.2672 2.35668 17.1218C2.83027 15.5919 3.30387 14.0983 3.77746 12.5684C3.85036 12.3864 3.85036 12.3497 4.06905 12.3497H32.8469C32.956 12.3135 33.0289 12.3497 33.1385 12.3497C33.4663 12.3859 33.7941 12.3859 34.1219 12.3497H35.5789C35.7247 12.3497 35.7609 12.3859 35.7247 12.5317C35.6518 12.7866 35.5789 13.0415 35.4698 13.2969C35.4335 13.406 35.3969 13.5156 35.3606 13.6247C35.3244 13.7338 35.3606 13.7338 35.4698 13.7338H37.2912C37.4003 13.77 37.4732 13.77 37.5099 13.8067L37.5095 13.8062Z"
      fill="white"
      stroke="#53749B"
      stroke-width="0.190582"
    />
    <path
      d="M34.1218 12.3854H33.1384C33.1022 12.3492 33.1022 12.2763 33.1384 12.2396C33.2842 11.3653 33.3933 10.491 33.5029 9.61675C33.5391 9.10694 33.5758 8.59666 33.5758 8.08685C33.612 7.46746 33.612 6.81186 33.5758 6.19247C33.5758 5.46397 33.5029 4.73548 33.4667 4.00698C33.3938 3.05979 33.248 2.1126 33.1022 1.16541C33.0781 1.04407 33.0052 0.983401 32.8835 0.983401H4.9795C4.6517 0.983401 4.68791 0.94719 4.61501 1.27499C4.43301 2.22218 4.32342 3.20558 4.25052 4.15277C4.17763 4.84506 4.14142 5.57356 4.14142 6.26537C4.14142 6.52027 4.10521 6.77518 4.10521 7.06677C4.14142 7.79526 4.14142 8.48755 4.21431 9.21605C4.25052 9.76254 4.32342 10.309 4.36011 10.8555C4.36011 10.8917 4.39632 10.9646 4.36011 11.0013C4.3239 11.038 4.28721 11.0375 4.251 11.0375H3.44961C3.4134 11.0375 3.37671 11.0375 3.3405 11.0013C3.2676 10.8555 3.2676 10.7097 3.2676 10.5277C3.1947 9.79923 3.12181 9.10694 3.0856 8.37844C3.0856 7.83195 3.0127 7.28546 3.04938 6.70275C3.0856 6.08336 3.0856 5.46445 3.12228 4.88127C3.19518 3.82497 3.30429 2.76867 3.45008 1.7119C3.52298 1.16541 3.63209 0.655601 3.74167 0.109108C3.77788 0.109108 3.77788 0.0362105 3.81457 0H33.8674C33.9036 0.0362105 33.9036 0.0728974 33.9403 0.145795C34.159 1.16588 34.3048 2.18597 34.4501 3.20558C34.523 3.89787 34.5959 4.58968 34.6321 5.31818C34.6683 6.19247 34.6683 7.06676 34.6683 7.94106C34.6321 9.36184 34.4863 10.8188 34.2314 12.2396C34.1952 12.2758 34.1952 12.3487 34.1223 12.3854H34.1218Z"
      fill="#53749B"
    />
    <path
      d="M31.1349 19.9625C30.9162 20.2903 30.698 20.5819 30.4793 20.9097C29.4959 22.2938 28.4391 23.5687 27.237 24.7708C25.3793 26.6652 23.3029 28.3042 21.0807 29.725C20.3884 30.1619 19.6966 30.5626 18.9681 30.9271C18.9319 30.9271 18.8952 30.9633 18.8952 31H18.8223C18.6765 30.9271 18.5674 30.8542 18.4216 30.7813C16.4182 29.6883 14.5967 28.4133 12.8848 26.993C11.2453 25.6089 9.7154 24.1152 8.36751 22.4396C7.42032 21.2737 6.54602 20.0354 5.81753 18.6875C5.78132 18.6513 5.78132 18.6146 5.74463 18.5784H6.83761C6.91051 18.5784 6.91051 18.6513 6.94672 18.7242C7.45653 19.5618 8.00302 20.3636 8.5862 21.165C9.0598 21.7844 9.5696 22.3671 10.0799 22.9498C10.5897 23.4963 11.1 24.0428 11.6465 24.5526C12.1563 25.0262 12.6666 25.4998 13.1764 25.9734C13.9049 26.5928 14.67 27.2117 15.4714 27.7582C16.309 28.3409 17.1833 28.9241 18.0576 29.4339C18.2763 29.543 18.4945 29.6888 18.7132 29.7984C18.7861 29.8346 18.859 29.8346 18.9319 29.7984C19.7695 29.3615 20.5714 28.8512 21.3728 28.3414C22.3929 27.6491 23.3763 26.9206 24.3235 26.1192C25.2707 25.3178 26.1812 24.4435 27.0193 23.5692C28.0027 22.5491 28.9136 21.4199 29.715 20.2545C30.0795 19.7447 30.4073 19.2344 30.6984 18.7246C30.7346 18.6884 30.7346 18.6155 30.8075 18.6155H31.4269C31.536 18.6155 31.5727 18.6517 31.536 18.7613C31.4269 19.1258 31.3173 19.4898 31.1353 19.9634L31.1349 19.9625Z"
      fill="#53749B"
    />
    <path
      d="M0.42594 16.3924C0.972433 14.6438 1.51893 12.8952 2.06542 11.1833C2.10163 11.0742 2.06542 11.0742 2.24742 11.0742H4.36002C4.43292 11.0013 4.54203 11.038 4.61492 11.038H4.65113C4.68734 11.0742 4.76024 11.038 4.83314 11.038H6.36303C6.43593 11.038 6.50883 11.0018 6.50883 11.0742C6.50883 11.1466 6.43593 11.1833 6.39972 11.1833C5.96281 11.402 5.52543 11.6569 5.08852 11.8756C4.72403 12.0576 4.39623 12.2401 4.06843 12.3854H32.8462L32.8825 12.4216H4.06891C3.97171 12.4216 3.91104 12.4702 3.8869 12.5674C3.85069 12.7132 3.77779 12.8952 3.74111 13.041C3.632 13.3326 3.5591 13.6237 3.44952 13.9515C3.19461 14.7529 2.93971 15.5543 2.68433 16.3195C2.61143 16.6111 2.50233 16.9022 2.39274 17.1938H0.134827C0.134827 17.1938 0.353519 16.5744 0.426416 16.3924H0.42594Z"
      fill="white"
      stroke="#53749B"
      stroke-width="0.190582"
    />
    <path
      d="M31.1348 19.9625C31.2077 19.8534 31.3168 19.8167 31.3897 19.7805C31.8995 19.5255 32.4098 19.234 32.9196 18.9791C33.1745 18.8699 33.3932 18.7242 33.6481 18.6146C33.6119 18.6508 33.5752 18.6146 33.539 18.6146H31.7542C31.6813 18.6146 31.6084 18.6508 31.6084 18.5417H33.721C33.7939 18.5417 33.8301 18.5417 33.8668 18.4688C33.9759 18.0681 34.1217 17.6674 34.2313 17.2667C34.3042 16.9751 34.4133 16.7202 34.4862 16.4291C34.7411 15.6277 34.996 14.8263 35.2514 14.0611C35.2514 14.0249 35.2876 13.952 35.2876 13.9153C35.2876 13.8786 35.3238 13.8424 35.3967 13.8424H37.5822C37.5093 14.0611 37.4364 14.2793 37.3635 14.4618C36.817 16.2466 36.2343 17.9952 35.6878 19.7805C35.6878 19.8046 35.6758 19.8289 35.6516 19.8534C35.6516 19.8896 35.6154 19.9262 35.5787 19.9262H31.3897C31.2806 19.9625 31.2077 19.9625 31.1348 19.9625Z"
      fill="white"
      stroke="#53749B"
      stroke-width="0.190582"
    />
    <path
      d="M7.20172 18.5779H30.4789C30.5151 18.6141 30.4789 18.6508 30.4427 18.7237C29.9329 19.598 29.3497 20.4356 28.7308 21.237C28.3663 21.7106 27.9656 22.2204 27.5649 22.6578C27.3462 22.8764 27.1642 23.0947 26.9455 23.35C26.6539 23.6416 26.399 23.9327 26.1079 24.2243C25.5981 24.7341 25.0516 25.2077 24.5051 25.6813C23.3759 26.6647 22.1738 27.5757 20.8988 28.4133C20.2794 28.814 19.6238 29.2147 18.9682 29.5792C18.8953 29.6154 18.8224 29.6154 18.7495 29.5792C18.385 29.3972 18.021 29.1785 17.6565 28.9598C16.3816 28.1946 15.1795 27.357 14.0503 26.4098C13.5767 26.0091 13.1031 25.6084 12.6295 25.2077C12.0101 24.6612 11.4274 24.0785 10.8447 23.4592C9.8246 22.4029 8.91409 21.2737 8.07601 20.0349C7.78442 19.6342 7.52952 19.1973 7.27462 18.7599C7.23841 18.6508 7.16551 18.6508 7.20172 18.5779Z"
      fill="#53749B"
    />
    <path
      d="M4.6155 11.0013H4.32391C4.2877 10.6735 4.25102 10.3457 4.21481 10.0179C4.14191 9.28943 4.1057 8.56093 4.06901 7.83243C4.0328 7.14015 4.06901 6.44833 4.06901 5.75605C4.10522 5.02755 4.14191 4.33526 4.21481 3.60676C4.2877 2.76916 4.4335 1.89486 4.57929 1.05678C4.60343 0.984043 4.6398 0.947673 4.6884 0.947673H32.8468C32.9197 0.947673 32.9926 0.911463 33.0288 0.947673C33.065 0.983884 33.065 1.05678 33.065 1.12968C33.1742 1.78528 33.2837 2.44088 33.3566 3.09696C33.4295 3.75256 33.5024 4.44485 33.5386 5.10045C33.5749 6.01095 33.6115 6.88524 33.5749 7.79622C33.5749 8.48851 33.502 9.14411 33.4657 9.8364C33.3928 10.674 33.2837 11.5483 33.1013 12.3864H32.8097C32.7735 12.3135 32.8097 12.2773 32.8097 12.2044C32.9555 11.3301 33.0646 10.4925 33.1375 9.61818C33.1737 9.10838 33.2104 8.59809 33.2466 8.08829C33.2828 7.4689 33.2828 6.84998 33.2466 6.23059C33.2466 5.32009 33.1737 4.4458 33.0646 3.53482C32.9917 2.87922 32.9188 2.22362 32.8097 1.56754C32.8097 1.53133 32.7735 1.45843 32.7735 1.42174C32.7735 1.31264 32.7006 1.27595 32.5914 1.27595H5.0891C4.7613 1.27595 4.79751 1.27595 4.7613 1.56754C4.6155 2.40515 4.5064 3.27944 4.4335 4.15373C4.3606 4.88223 4.3606 5.61073 4.32439 6.33923C4.28818 6.92193 4.32439 7.50511 4.32439 8.08781C4.3606 8.9621 4.4335 9.8364 4.54308 10.7107C4.65219 10.8565 4.68888 10.9294 4.61598 11.0023L4.6155 11.0013Z"
      fill="white"
    />
    <path
      d="M7.20159 18.5779C7.49318 19.0515 7.78429 19.5251 8.07588 19.9987C9.09597 21.4557 10.2252 22.8402 11.5002 24.0785C13.2121 25.7542 15.0335 27.2479 17.0737 28.5591C17.6202 28.8869 18.13 29.2147 18.6765 29.5063C18.7856 29.5425 18.8585 29.5792 18.9314 29.5063C20.2426 28.7778 21.4814 27.9764 22.6468 27.1021C24.6503 25.6084 26.4351 23.8965 28.0379 21.9659C28.8755 20.9459 29.6407 19.9258 30.2963 18.7966C30.3325 18.7237 30.3411 18.6941 30.3773 18.6212C30.4864 18.585 30.5474 18.6265 30.6565 18.6265H30.7117H30.7703C29.6045 20.5938 28.1832 22.33 26.5804 23.969C24.6131 25.9724 22.4276 27.721 19.9872 29.178C19.6227 29.3967 19.2587 29.6149 18.8942 29.7974C18.8213 29.8336 18.7485 29.8336 18.6756 29.7974C17.4006 29.1051 16.1623 28.3404 14.9964 27.4661C13.6485 26.4827 12.3735 25.3897 11.2081 24.1876C9.71441 22.694 8.40321 21.0912 7.27401 19.3426C7.12822 19.0877 6.94621 18.8328 6.80042 18.5774C6.98242 18.5412 7.09201 18.5774 7.20111 18.5774L7.20159 18.5779Z"
      fill="white"
    />
    <path
      d="M31.5718 18.5417H33.7211C33.6849 18.6146 33.6482 18.6146 33.612 18.6508C33.43 18.7599 33.2475 18.8328 33.0655 18.9424C32.7377 19.1244 32.3732 19.3069 32.0454 19.4522C31.7905 19.598 31.3169 19.8529 31.3169 19.8529C31.3169 19.8529 31.2078 19.9258 31.1711 19.9258C31.2074 19.78 31.2317 18.9562 31.2317 18.9562L31.5718 18.5417Z"
      fill="#53749B"
    />
    <path
      d="M4.59774 10.9394C4.52484 10.5025 4.48863 10.0289 4.45194 9.59149C4.37905 8.79009 4.34283 7.9887 4.34283 7.1873C4.34283 6.64081 4.34283 6.0581 4.37905 5.51161C4.37905 5.14712 4.41526 4.81932 4.45194 4.45531C4.48815 3.94551 4.52484 3.43522 4.59774 2.88873C4.67063 2.34224 4.74353 1.83243 4.85264 1.32215C4.87678 1.24941 4.92538 1.21304 4.99844 1.21304H32.6833C32.8046 1.21304 32.8775 1.27371 32.902 1.39505C33.0111 1.94154 33.084 2.52424 33.1569 3.10695C33.2298 3.61675 33.266 4.12704 33.3027 4.67353C33.3389 5.40203 33.3756 6.16721 33.3756 6.93192C33.3756 7.69663 33.3393 8.53471 33.3027 9.2999C33.2298 10.32 33.084 11.3034 32.902 12.2868C32.902 12.323 32.902 12.3597 32.8657 12.3959H6.16432C6.12811 12.323 6.16432 12.2868 6.16432 12.2501C6.27343 11.8856 6.38301 11.5216 6.49212 11.1571C6.52833 11.048 6.49212 11.048 6.41922 11.048H4.74353C4.67063 10.9389 4.63442 10.9389 4.59774 10.9389V10.9394Z"
      fill="#53749B"
    />
    <path
      d="M4.6155 11.0013H6.43698C6.50972 11.0013 6.53402 11.0377 6.50988 11.1104C6.36409 11.5473 6.25498 11.948 6.10918 12.3854H3.9599C4.0328 12.3492 4.10569 12.3125 4.17859 12.2763C4.47018 12.1305 4.79798 11.9485 5.0891 11.8027C5.526 11.584 5.9267 11.3658 6.36409 11.1471C6.4003 11.1109 6.43698 11.1109 6.47319 11.0742H4.72461C4.72461 11.0013 4.65171 11.0742 4.6155 11.0013Z"
      fill="#53749B"
    />
    <path d="M6.04242 5.92662L9.59486 4.58588V5.92662H6.04242Z" fill="white" />
    <path
      d="M9.54726 4.65497V5.87898H6.30357L9.54726 4.65497ZM9.64256 4.51727L5.78137 5.97427H9.64256V4.51727Z"
      fill="#53749B"
    />
    <path d="M9.69012 4.58683L11.3892 3.97507L9.69012 9.3447V4.58683Z" fill="white" />
    <path
      d="M11.3149 4.05271L9.7378 9.03641V4.62064L11.3149 4.05271ZM11.4635 3.89786L9.64203 4.55346V9.65342L11.4635 3.89786Z"
      fill="#53749B"
    />
    <path d="M8.25555 6.02191H9.59487V9.36948L8.25555 6.02191Z" fill="white" />
    <path
      d="M9.54719 6.06953V9.12217L8.32604 6.06953H9.54719ZM9.64248 5.97424H8.18549L9.64248 9.61721V5.97424Z"
      fill="#53749B"
    />
    <path d="M6.06763 6.02191H8.15259L8.46848 6.84332L6.06763 6.02191Z" fill="white" />
    <path
      d="M8.11986 6.06953L8.38762 6.76516L6.35412 6.06953H8.11986ZM8.18513 5.97424H5.78094L8.54962 6.92143L8.18513 5.97424Z"
      fill="#53749B"
    />
    <path
      d="M14.6491 8.33175C14.6271 8.35366 14.5914 8.3813 14.5419 8.41417C14.4923 8.44705 14.4256 8.47992 14.3413 8.51327C14.2569 8.54615 14.155 8.57474 14.0359 8.59856C13.9167 8.62238 13.78 8.63429 13.6261 8.63429C13.3293 8.63429 13.0725 8.58665 12.8562 8.49136C12.6399 8.39607 12.4612 8.26314 12.3202 8.09257C12.1791 7.922 12.0753 7.72046 12.0095 7.48747C11.9438 7.25448 11.9104 6.9991 11.9104 6.72038C11.9104 6.44165 11.9461 6.18437 12.0176 5.94757C12.0891 5.71125 12.1963 5.50685 12.3392 5.33437C12.4821 5.1619 12.6608 5.02754 12.8752 4.93034C13.0896 4.83314 13.3417 4.78455 13.6314 4.78455C13.7743 4.78455 13.9034 4.79741 14.0192 4.82314C14.1345 4.84887 14.2355 4.87888 14.3217 4.91366C14.408 4.94845 14.4794 4.98513 14.5361 5.02373C14.5928 5.06232 14.6362 5.09424 14.6653 5.11997C14.6981 5.14951 14.7267 5.18429 14.7505 5.22431C14.7744 5.26481 14.7863 5.30865 14.7863 5.35629C14.7863 5.42966 14.7586 5.50304 14.7038 5.57641C14.6491 5.64979 14.5885 5.71744 14.5223 5.77986C14.4785 5.73602 14.4289 5.69124 14.3737 5.64502C14.3189 5.59928 14.2574 5.55878 14.1893 5.524C14.1216 5.48922 14.0444 5.45968 13.9582 5.43586C13.872 5.41204 13.7757 5.40012 13.6695 5.40012C13.4827 5.40012 13.3259 5.43776 13.1992 5.51304C13.0729 5.58832 12.971 5.68647 12.8938 5.80702C12.8166 5.92804 12.7618 6.06621 12.7289 6.22201C12.6961 6.37781 12.6794 6.53647 12.6794 6.69751C12.6794 6.86999 12.6961 7.03484 12.7289 7.19254C12.7618 7.35025 12.8185 7.48938 12.8995 7.61039C12.98 7.73141 13.0853 7.82861 13.2159 7.90198C13.346 7.97536 13.508 8.01205 13.7023 8.01205C13.8048 8.01205 13.8996 7.99918 13.9854 7.97345C14.0716 7.94772 14.1474 7.91675 14.2136 7.88007C14.2798 7.84338 14.3375 7.80479 14.387 7.76477C14.4366 7.72427 14.4775 7.68949 14.5109 7.66042C14.5328 7.68615 14.5585 7.71712 14.5881 7.75381C14.6176 7.79049 14.6448 7.82909 14.6705 7.86911C14.6962 7.90961 14.7181 7.94963 14.7362 7.99013C14.7544 8.03063 14.7639 8.06731 14.7639 8.10019C14.7639 8.14783 14.7548 8.18833 14.7362 8.22121C14.7177 8.25408 14.6886 8.29077 14.6481 8.33127L14.6491 8.33175Z"
      fill="white"
      stroke="white"
      stroke-width="0.0476454"
    />
    <path
      d="M17.3601 7.90294C17.3601 8.18882 17.4021 8.39989 17.4864 8.5352C17.4207 8.56093 17.3592 8.57903 17.302 8.58999C17.2453 8.60095 17.1858 8.60667 17.1233 8.60667C16.9914 8.60667 16.8913 8.58094 16.8237 8.52948C16.756 8.47803 16.7126 8.40513 16.6945 8.30936C16.614 8.39369 16.5078 8.46516 16.3758 8.52376C16.2438 8.58237 16.0823 8.61191 15.8917 8.61191C15.7926 8.61191 15.6935 8.59809 15.5949 8.57046C15.4963 8.54282 15.4062 8.49804 15.3252 8.43562C15.2447 8.37321 15.1785 8.28983 15.1275 8.18548C15.076 8.08114 15.0503 7.95345 15.0503 7.80337C15.0503 7.6166 15.0951 7.46413 15.1851 7.34692C15.2747 7.22972 15.3876 7.13728 15.5234 7.06915C15.6592 7.00149 15.8055 6.9548 15.9632 6.92907C16.1209 6.90334 16.2657 6.88715 16.3977 6.87952C16.4415 6.87571 16.4849 6.8738 16.5268 6.8738H16.645V6.7747C16.645 6.63558 16.6073 6.53648 16.5321 6.47787C16.4568 6.41927 16.3348 6.38973 16.1666 6.38973C16.0089 6.38973 15.8688 6.41546 15.7459 6.46691C15.623 6.51837 15.5029 6.57697 15.3857 6.64272C15.3343 6.58031 15.2933 6.5117 15.2618 6.43642C15.2309 6.36114 15.2151 6.3054 15.2151 6.26871C15.2151 6.22106 15.2433 6.17246 15.3004 6.12291C15.3571 6.07336 15.4353 6.02953 15.5344 5.99094C15.6335 5.95234 15.7469 5.92137 15.8755 5.89755C16.0037 5.87373 16.1395 5.86182 16.2824 5.86182C16.4806 5.86182 16.6478 5.88183 16.7855 5.92233C16.9228 5.96282 17.0347 6.02524 17.121 6.1091C17.2072 6.19343 17.2687 6.29872 17.3053 6.42546C17.342 6.55172 17.3601 6.69942 17.3601 6.86809V7.90199V7.90294ZM16.6564 7.26497H16.5792C16.5535 7.26497 16.5278 7.26688 16.502 7.27069C16.4106 7.27784 16.3196 7.28975 16.23 7.30643C16.1399 7.3231 16.0604 7.34883 15.9908 7.38361C15.9213 7.41839 15.8646 7.46508 15.8202 7.52369C15.7764 7.58229 15.754 7.65757 15.754 7.74905C15.754 7.85196 15.7836 7.93868 15.8422 8.01015C15.9008 8.08162 15.9999 8.11735 16.139 8.11735C16.2086 8.11735 16.2748 8.1083 16.3372 8.08971C16.3996 8.07161 16.4544 8.04779 16.502 8.01825C16.5497 7.98918 16.5873 7.95678 16.615 7.922C16.6426 7.88722 16.6564 7.8553 16.6564 7.82576V7.26497Z"
      fill="white"
      stroke="white"
      stroke-width="0.0476454"
    />
    <path
      d="M18.669 6.182C18.7276 6.11244 18.819 6.04192 18.9439 5.97045C19.0682 5.89898 19.2259 5.86325 19.4165 5.86325C19.5523 5.86325 19.6814 5.88612 19.8044 5.93186C19.9273 5.9776 20.0364 6.05193 20.1317 6.15436C20.227 6.25728 20.3032 6.39259 20.3599 6.56126C20.4166 6.72992 20.4452 6.93718 20.4452 7.18255C20.4452 7.46842 20.4123 7.70427 20.3461 7.88913C20.2803 8.07447 20.195 8.22074 20.0902 8.3289C19.9859 8.43705 19.8682 8.51329 19.7381 8.55712C19.6081 8.60096 19.4804 8.62287 19.356 8.62287C19.2498 8.62287 19.1573 8.61096 19.0782 8.58714C18.9991 8.56332 18.9324 8.53663 18.8777 8.50757C18.8229 8.47803 18.7805 8.44897 18.7514 8.41943C18.7219 8.39036 18.7037 8.36988 18.6966 8.35892V9.7392H17.9543V5.93948L18.02 5.92853C18.042 5.92471 18.0677 5.92233 18.0972 5.92043C18.1268 5.91852 18.1615 5.91757 18.2016 5.91757C18.3226 5.91757 18.425 5.93758 18.5094 5.97808C18.5937 6.01857 18.647 6.08623 18.669 6.18152V6.182ZM19.6643 7.19923C19.6643 7.08917 19.6552 6.98673 19.6366 6.89144C19.6181 6.79615 19.588 6.71372 19.5461 6.64416C19.5037 6.5746 19.447 6.52028 19.3755 6.48216C19.3041 6.44357 19.2169 6.42451 19.1145 6.42451C18.9606 6.42451 18.8534 6.45405 18.7928 6.51266C18.7323 6.57126 18.7023 6.63558 18.7023 6.70514V7.87103C18.7314 7.90057 18.7838 7.93535 18.8591 7.97537C18.9344 8.01587 19.0211 8.03588 19.1202 8.03588C19.3069 8.03588 19.4446 7.96251 19.5328 7.81576C19.6209 7.66901 19.6648 7.46366 19.6648 7.1997L19.6643 7.19923Z"
      fill="white"
      stroke="white"
      stroke-width="0.0476454"
    />
    <path
      d="M20.9892 8.14499C20.9635 8.07161 20.9468 7.9949 20.9397 7.91391C20.9325 7.83339 20.9287 7.75287 20.9287 7.67187V5.12046L21.0111 5.1095C21.0369 5.10569 21.064 5.10331 21.0936 5.1014C21.1231 5.09949 21.1522 5.09854 21.1817 5.09854C21.2403 5.09854 21.2989 5.10426 21.3575 5.11522C21.4161 5.12618 21.4695 5.14809 21.5171 5.18144C21.5648 5.2148 21.6034 5.25958 21.6324 5.31628C21.662 5.37298 21.6763 5.44731 21.6763 5.53878V5.92376H22.4462V6.48455H21.6763V7.66139C21.6763 7.9182 21.7806 8.04636 21.9898 8.04636C22.0412 8.04636 22.0898 8.03826 22.1356 8.02159C22.1813 8.00491 22.2237 7.98681 22.2618 7.96679C22.3004 7.94678 22.3323 7.92534 22.3581 7.90343C22.3838 7.88151 22.4019 7.86483 22.4129 7.85387C22.4677 7.93439 22.5101 8.00443 22.5391 8.06304C22.5687 8.12164 22.583 8.17691 22.583 8.22789C22.583 8.27554 22.5639 8.32223 22.5253 8.36797C22.4867 8.41371 22.4329 8.45611 22.3633 8.49423C22.2938 8.53282 22.2094 8.56379 22.1103 8.58761C22.0112 8.61144 21.9031 8.62335 21.7859 8.62335C21.5548 8.62335 21.3771 8.57951 21.2527 8.49137C21.1279 8.40323 21.0402 8.28792 20.9887 8.14499H20.9892Z"
      fill="white"
      stroke="white"
      stroke-width="0.0476454"
    />
    <path
      d="M24.2172 8.07352C24.3087 8.07352 24.3897 8.06352 24.4593 8.0435C24.5288 8.02349 24.5912 7.99872 24.646 7.96918C24.7008 7.94011 24.7485 7.90772 24.789 7.87293C24.8295 7.83815 24.8661 7.80623 24.899 7.77669C24.9429 7.83148 24.9886 7.90247 25.0367 7.98824C25.0844 8.07447 25.1082 8.14499 25.1082 8.19978C25.1082 8.2803 25.0624 8.35368 24.971 8.4199C24.8938 8.47851 24.7847 8.52901 24.6436 8.57094C24.5026 8.61287 24.3363 8.63431 24.1457 8.63431C23.9733 8.63431 23.8041 8.61239 23.6369 8.56856C23.4701 8.52472 23.3215 8.44754 23.1914 8.33748C23.0613 8.22742 22.9556 8.08019 22.875 7.89485C22.7945 7.70999 22.754 7.47605 22.754 7.19399C22.754 6.96291 22.7898 6.76423 22.8612 6.59747C22.9327 6.43071 23.028 6.29206 23.1471 6.18247C23.2662 6.07241 23.4011 5.99189 23.5511 5.94044C23.7012 5.88898 23.8551 5.86325 24.0128 5.86325C24.2182 5.86325 24.3921 5.89517 24.535 5.95949C24.6779 6.02382 24.7942 6.11005 24.8843 6.21773C24.9738 6.32589 25.0391 6.44977 25.0796 6.58889C25.1201 6.72849 25.1401 6.87476 25.1401 7.02866V7.10584C25.1401 7.13538 25.1392 7.16635 25.1373 7.19923C25.1353 7.2321 25.1334 7.2645 25.1315 7.29547C25.1296 7.32644 25.1268 7.35122 25.1234 7.3698H23.5068C23.5216 7.57134 23.584 7.73905 23.6936 7.87293C23.8037 8.00682 23.9776 8.07352 24.2158 8.07352H24.2172ZM24.4645 6.95719C24.4645 6.78138 24.4307 6.63844 24.3625 6.52838C24.2949 6.41832 24.1729 6.36353 23.9971 6.36353C23.8432 6.36353 23.7222 6.41594 23.634 6.52028C23.5459 6.62462 23.5021 6.77042 23.5021 6.95767H24.4645V6.95719Z"
      fill="white"
      stroke="white"
      stroke-width="0.0476454"
    />
    <path
      d="M26.296 6.19819C26.318 6.16531 26.3485 6.12862 26.3866 6.08812C26.4252 6.04763 26.4699 6.01094 26.5214 5.97806C26.5729 5.94519 26.6305 5.91755 26.6948 5.89564C26.7587 5.87372 26.8278 5.86276 26.9011 5.86276C26.945 5.86276 26.9917 5.86657 27.0412 5.87372C27.0908 5.88087 27.1365 5.89468 27.1789 5.91517C27.2208 5.93518 27.2551 5.96282 27.2804 5.9976C27.3061 6.03238 27.319 6.07574 27.319 6.12672C27.319 6.16722 27.3133 6.21105 27.3023 6.2587C27.2914 6.30634 27.2766 6.35494 27.2585 6.40449C27.2399 6.45404 27.2208 6.50169 27.2008 6.54743C27.1808 6.59317 27.1594 6.63462 27.1375 6.6713C27.075 6.61985 27.0126 6.58078 26.9507 6.55314C26.8883 6.52551 26.8149 6.51169 26.7306 6.51169C26.6167 6.51169 26.5214 6.54457 26.4447 6.61079C26.3675 6.67655 26.3294 6.75564 26.3294 6.84712V8.54091H25.5814V5.93995L25.6471 5.92899C25.669 5.92518 25.6948 5.9228 25.7243 5.92089C25.7538 5.91898 25.7886 5.91803 25.8286 5.91803C25.9458 5.91803 26.0478 5.9409 26.134 5.98664C26.2203 6.03238 26.2741 6.10289 26.296 6.19819Z"
      fill="white"
      stroke="white"
      stroke-width="0.0476454"
    />
    <path
      d="M28.3357 6.19819C28.3576 6.16531 28.3881 6.12862 28.4262 6.08812C28.4648 6.04763 28.5096 6.01094 28.5611 5.97806C28.6125 5.94519 28.6702 5.91755 28.7345 5.89564C28.7984 5.87372 28.8674 5.86276 28.9408 5.86276C28.9846 5.86276 29.0313 5.86657 29.0809 5.87372C29.1304 5.88087 29.1762 5.89468 29.2186 5.91517C29.2605 5.93518 29.2948 5.96282 29.3201 5.9976C29.3458 6.03238 29.3587 6.07574 29.3587 6.12672C29.3587 6.16722 29.3529 6.21105 29.342 6.2587C29.331 6.30634 29.3163 6.35494 29.2982 6.40449C29.2796 6.45404 29.2605 6.50169 29.2405 6.54743C29.2205 6.59317 29.199 6.63462 29.1771 6.6713C29.1147 6.61985 29.0523 6.58078 28.9904 6.55314C28.9279 6.52551 28.8546 6.51169 28.7702 6.51169C28.6564 6.51169 28.5611 6.54457 28.4844 6.61079C28.4072 6.67655 28.3691 6.75564 28.3691 6.84712V8.54091H27.621V5.93995L27.6868 5.92899C27.7087 5.92518 27.7344 5.9228 27.764 5.92089C27.7935 5.91898 27.8283 5.91803 27.8683 5.91803C27.9855 5.91803 28.0875 5.9409 28.1737 5.98664C28.26 6.03238 28.3138 6.10289 28.3357 6.19819Z"
      fill="white"
      stroke="white"
      stroke-width="0.0476454"
    />
    <path
      d="M31.7943 7.90294C31.7943 8.18882 31.8362 8.39989 31.9205 8.5352C31.8548 8.56093 31.7933 8.57903 31.7362 8.58999C31.6795 8.60095 31.6199 8.60667 31.5575 8.60667C31.4255 8.60667 31.3255 8.58094 31.2578 8.52948C31.1901 8.47803 31.1468 8.40513 31.1287 8.30936C31.0482 8.39369 30.9419 8.46516 30.8099 8.52376C30.678 8.58237 30.5164 8.61191 30.3259 8.61191C30.2268 8.61191 30.1276 8.59809 30.029 8.57046C29.9304 8.54282 29.8403 8.49804 29.7593 8.43562C29.6788 8.37321 29.6126 8.28983 29.5616 8.18548C29.5102 8.08114 29.4844 7.95345 29.4844 7.80337C29.4844 7.6166 29.5292 7.46413 29.6193 7.34692C29.7088 7.22972 29.8218 7.13728 29.9576 7.06915C30.0933 7.00149 30.2396 6.9548 30.3973 6.92907C30.555 6.90334 30.6999 6.88715 30.8318 6.87952C30.8757 6.87571 30.919 6.8738 30.961 6.8738H31.0791V6.7747C31.0791 6.63558 31.0415 6.53648 30.9662 6.47787C30.8909 6.41927 30.769 6.38973 30.6008 6.38973C30.4431 6.38973 30.303 6.41546 30.1801 6.46691C30.0571 6.51837 29.9371 6.57697 29.8199 6.64272C29.7684 6.58031 29.7274 6.5117 29.696 6.43642C29.665 6.36114 29.6493 6.3054 29.6493 6.26871C29.6493 6.22106 29.6774 6.17246 29.7346 6.12291C29.7913 6.07336 29.8694 6.02953 29.9685 5.99094C30.0676 5.95234 30.181 5.92137 30.3097 5.89755C30.4378 5.87373 30.5736 5.86182 30.7165 5.86182C30.9148 5.86182 31.082 5.88183 31.2197 5.92233C31.3569 5.96282 31.4689 6.02524 31.5551 6.1091C31.6413 6.19343 31.7028 6.29872 31.7395 6.42546C31.7762 6.55172 31.7943 6.69942 31.7943 6.86809V7.90199V7.90294ZM31.0906 7.26497H31.0134C30.9876 7.26497 30.9619 7.26688 30.9362 7.27069C30.8447 7.27784 30.7537 7.28975 30.6641 7.30643C30.5741 7.3231 30.4945 7.34883 30.425 7.38361C30.3554 7.41839 30.2987 7.46508 30.2544 7.52369C30.2106 7.58229 30.1882 7.65757 30.1882 7.74905C30.1882 7.85196 30.2177 7.93868 30.2763 8.01015C30.3349 8.08162 30.434 8.11735 30.5731 8.11735C30.6427 8.11735 30.7089 8.1083 30.7713 8.08971C30.8338 8.07161 30.8885 8.04779 30.9362 8.01825C30.9838 7.98918 31.0215 7.95678 31.0491 7.922C31.0767 7.88722 31.0906 7.8553 31.0906 7.82576V7.26497Z"
      fill="white"
      stroke="white"
      stroke-width="0.0476454"
    />
    <path
      d="M9.32765 14.4299C9.27572 14.3622 9.20806 14.3089 9.12516 14.2703C9.04178 14.2312 8.95316 14.2117 8.85834 14.2112C8.80927 14.2112 8.75638 14.2202 8.70016 14.2383C8.64346 14.2565 8.59153 14.2841 8.54341 14.3213C8.49528 14.3579 8.45336 14.4042 8.41715 14.4599C8.38094 14.5152 8.35854 14.5819 8.34949 14.6591C8.33853 14.7567 8.3595 14.8377 8.41381 14.9016C8.46765 14.9659 8.55246 15.0316 8.66728 15.0993C8.73256 15.1398 8.80164 15.1884 8.87454 15.2441C8.94696 15.2999 9.01128 15.3661 9.06751 15.4419C9.12373 15.5176 9.16709 15.6058 9.19805 15.7049C9.22855 15.8045 9.23665 15.9198 9.2214 16.0508C9.19805 16.2561 9.14136 16.4353 9.05226 16.5882C8.96269 16.7412 8.85167 16.8689 8.71922 16.9708C8.58629 17.0733 8.44002 17.149 8.27993 17.199C8.11984 17.2491 7.95737 17.2738 7.79252 17.2729C7.56477 17.2719 7.36037 17.2343 7.17932 17.1595C6.99827 17.0847 6.86152 16.9932 6.76862 16.8851L7.31368 16.3062C7.37514 16.3838 7.45471 16.4472 7.55238 16.4963C7.65006 16.5453 7.75535 16.5701 7.86732 16.5706C7.92354 16.5706 7.98071 16.5611 8.03932 16.5411C8.09745 16.521 8.15081 16.4925 8.19893 16.4558C8.24705 16.4191 8.28707 16.3738 8.31995 16.32C8.35235 16.2661 8.37236 16.2056 8.38046 16.1384C8.39142 16.0408 8.37093 15.9541 8.31804 15.8783C8.26516 15.8025 8.1732 15.7254 8.0417 15.6477C7.96594 15.6039 7.89352 15.5543 7.82444 15.5005C7.75535 15.4462 7.6958 15.3823 7.64672 15.308C7.59717 15.2337 7.56048 15.1493 7.53618 15.055C7.51188 14.9607 7.50664 14.8511 7.52094 14.7267C7.54047 14.5552 7.5905 14.3951 7.67054 14.2474C7.75059 14.0997 7.85302 13.972 7.97738 13.8648C8.10173 13.7576 8.24658 13.6733 8.41143 13.6113C8.57628 13.5499 8.75352 13.5189 8.94268 13.5199C9.1566 13.5208 9.34385 13.5532 9.50489 13.618C9.66593 13.6828 9.7879 13.7671 9.87033 13.872L9.32765 14.4308V14.4299Z"
      fill="#53749B"
    />
    <path
      d="M11.9995 17.1976L11.1948 17.1947L11.6412 15.6858L10.7416 15.6825L10.2952 17.1914L9.49048 17.1885L10.5468 13.6161L11.3463 13.6189L10.9418 14.9916L11.8413 14.9949L12.2458 13.6223L13.0558 13.6251L11.9995 17.1976Z"
      fill="#53749B"
    />
    <path
      d="M16.0909 14.9192C16.0575 15.2122 15.9841 15.5005 15.8707 15.7849C15.7573 16.0689 15.6135 16.3238 15.4386 16.5487C15.2637 16.7736 15.0608 16.9546 14.8292 17.0918C14.5977 17.229 14.347 17.2972 14.0769 17.2962C13.8877 17.2957 13.7219 17.2619 13.5804 17.1957C13.4389 17.1295 13.3241 17.0366 13.2359 16.9165C13.1478 16.7969 13.0873 16.6535 13.0535 16.4862C13.0201 16.3195 13.0149 16.1332 13.0387 15.9278C13.0721 15.6348 13.1449 15.3456 13.2564 15.0597C13.3679 14.7739 13.5113 14.5185 13.6862 14.2936C13.8611 14.0687 14.0645 13.8867 14.2961 13.7476C14.5276 13.6089 14.7801 13.5399 15.0536 13.5408C15.2537 13.5418 15.4243 13.5751 15.5658 13.6413C15.7073 13.7076 15.8212 13.8014 15.9069 13.9229C15.9932 14.0444 16.0508 14.1893 16.0809 14.3579C16.1104 14.5266 16.1137 14.7134 16.0904 14.9187L16.0909 14.9192ZM15.2418 15.0273C15.2528 14.933 15.2561 14.8406 15.2528 14.7496C15.249 14.6586 15.2347 14.5795 15.2089 14.5118C15.1832 14.4446 15.1446 14.3894 15.0936 14.3474C15.0422 14.305 14.9745 14.2841 14.8907 14.2836C14.7573 14.2831 14.6329 14.3351 14.5176 14.4389C14.4023 14.5428 14.3003 14.6738 14.2122 14.832C14.1241 14.9902 14.0516 15.1617 13.9954 15.3466C13.9392 15.5314 13.902 15.703 13.8839 15.8616C13.873 15.956 13.8706 16.0451 13.8768 16.1294C13.883 16.2137 13.8992 16.2871 13.9254 16.3495C13.9516 16.4119 13.9916 16.461 14.0454 16.4963C14.0993 16.532 14.1684 16.5496 14.2522 16.5501C14.3785 16.5501 14.4981 16.5024 14.611 16.4048C14.7239 16.3076 14.824 16.1832 14.9116 16.0322C14.9993 15.8812 15.0717 15.7163 15.1289 15.5381C15.1861 15.3599 15.2242 15.1898 15.2428 15.0283L15.2418 15.0273Z"
      fill="#53749B"
    />
    <path
      d="M19.1412 14.5666C19.1098 14.8392 19.0197 15.0679 18.8706 15.2527C18.7214 15.4376 18.5356 15.5648 18.3141 15.6348L18.548 17.2219L17.6961 17.2186L17.5508 15.7782L17.2773 15.7773L16.8547 17.2152L16.0762 17.2124L17.1325 13.6399L18.2264 13.6437C18.5561 13.6447 18.7996 13.7223 18.9573 13.8762C19.115 14.0301 19.1765 14.2603 19.1412 14.5666ZM18.3246 14.6648C18.3403 14.5266 18.3126 14.4308 18.2417 14.3765C18.1707 14.3222 18.0859 14.295 17.9877 14.2946L17.7142 14.2936L17.4388 15.227L17.7018 15.2279C17.8562 15.2284 17.9929 15.1817 18.1125 15.0879C18.2321 14.994 18.3026 14.853 18.3241 14.6643L18.3246 14.6648Z"
      fill="#53749B"
    />
    <path
      d="M21.6425 14.3184L20.9587 14.316L20.094 17.2276L19.2945 17.2248L20.1593 14.3132L19.4755 14.3108L19.6723 13.6499L21.8392 13.658L21.6425 14.3189V14.3184Z"
      fill="#53749B"
    />
    <path
      d="M23.0391 17.2381L21.2247 17.2314L22.281 13.659L23.091 13.6618L22.2482 16.5177L23.2525 16.5215L23.0391 17.2381Z"
      fill="#53749B"
    />
    <path
      d="M24.3488 17.2429L23.5336 17.24L24.5899 13.6676L25.4051 13.6704L24.3488 17.2429Z"
      fill="#53749B"
    />
    <path
      d="M27.499 14.4961C27.4471 14.4285 27.3794 14.3751 27.2965 14.3365C27.2132 14.2974 27.1245 14.2779 27.0297 14.2774C26.9806 14.2774 26.9278 14.2865 26.8715 14.3046C26.8148 14.3227 26.7629 14.3503 26.7148 14.3875C26.6667 14.4242 26.6247 14.4704 26.5885 14.5261C26.5523 14.5814 26.5299 14.6481 26.5209 14.7253C26.5094 14.823 26.5309 14.904 26.5852 14.9678C26.639 15.0321 26.7238 15.0979 26.8387 15.1655C26.9044 15.206 26.973 15.2546 27.0459 15.3104C27.1183 15.3661 27.1827 15.4324 27.2389 15.5081C27.2951 15.5839 27.3385 15.672 27.3694 15.7711C27.3999 15.8707 27.408 15.986 27.3928 16.117C27.3694 16.3224 27.3127 16.5015 27.2232 16.6545C27.1336 16.8074 27.0226 16.9351 26.8901 17.0371C26.7572 17.1395 26.6109 17.2152 26.4508 17.2653C26.2907 17.3153 26.1283 17.3401 25.9634 17.3391C25.7357 17.3382 25.5313 17.3005 25.3502 17.2257C25.1692 17.1509 25.0324 17.0594 24.9395 16.9513L25.4846 16.3724C25.546 16.4501 25.6256 16.5134 25.7233 16.5625C25.821 16.6116 25.9263 16.6364 26.0382 16.6368C26.0944 16.6368 26.1516 16.6273 26.2102 16.6073C26.2683 16.5873 26.3217 16.5587 26.3698 16.522C26.418 16.4853 26.458 16.4401 26.4908 16.3862C26.5232 16.3324 26.5433 16.2719 26.5509 16.2047C26.5618 16.107 26.5414 16.0203 26.4885 15.9441C26.4356 15.8683 26.3436 15.7911 26.2126 15.7135C26.1368 15.6696 26.0644 15.6206 25.9953 15.5662C25.9258 15.5124 25.8667 15.4481 25.8176 15.3738C25.7681 15.2994 25.7314 15.2151 25.7071 15.1208C25.6828 15.0264 25.6775 14.9168 25.6918 14.7925C25.7114 14.621 25.7614 14.4609 25.8414 14.3132C25.9215 14.1655 26.0239 14.0378 26.1483 13.9306C26.2726 13.8234 26.4175 13.739 26.5823 13.6771C26.7472 13.6156 26.9244 13.5847 27.1136 13.5856C27.3275 13.5866 27.5147 13.619 27.6758 13.6838C27.8368 13.7486 27.9588 13.8329 28.0412 13.9377L27.4985 14.4966L27.499 14.4961Z"
      fill="#53749B"
    />
    <path
      d="M30.3049 14.3498L29.6212 14.3474L28.7565 17.2591L27.957 17.2562L28.8217 14.3446L28.138 14.3422L28.3348 13.6814L30.5017 13.6895L30.3049 14.3503V14.3498Z"
      fill="#53749B"
    />
    <path
      d="M14.4128 23.9204V23.5002C14.468 23.4563 14.5324 23.4025 14.6053 23.3382C14.6782 23.2738 14.7549 23.2038 14.8349 23.128C14.915 23.0523 14.9969 22.9727 15.0803 22.8893C15.1637 22.806 15.2428 22.7221 15.319 22.6378C15.4329 22.5125 15.5239 22.3881 15.5925 22.2657C15.6611 22.1432 15.6954 22.016 15.6954 21.885C15.6954 21.8064 15.683 21.7406 15.6582 21.6882C15.6335 21.6358 15.6015 21.5939 15.562 21.5634C15.5224 21.5329 15.4781 21.511 15.4286 21.4976C15.379 21.4843 15.328 21.4781 15.2752 21.4781C15.1265 21.4781 14.9955 21.5119 14.8835 21.5786C14.7711 21.6458 14.6696 21.7215 14.5791 21.8064C14.5205 21.7392 14.4719 21.6749 14.4323 21.6139C14.3928 21.5524 14.3732 21.5014 14.3732 21.4605C14.3732 21.4252 14.3832 21.3933 14.4037 21.3642C14.4242 21.3351 14.449 21.3089 14.478 21.2856C14.5071 21.2622 14.5471 21.2332 14.5986 21.1979C14.6496 21.1627 14.711 21.1293 14.7825 21.0974C14.854 21.0655 14.9364 21.0383 15.0298 21.0164C15.1232 20.9945 15.228 20.9835 15.3452 20.9835C15.4767 20.9835 15.6006 20.9997 15.7173 21.0316C15.834 21.0636 15.9346 21.1136 16.0194 21.1803C16.1042 21.2475 16.1709 21.3356 16.2209 21.4452C16.2705 21.5548 16.2952 21.6853 16.2952 21.8368C16.2952 21.945 16.2776 22.0508 16.2428 22.1542C16.2081 22.2576 16.1618 22.359 16.1051 22.4586C16.0484 22.5577 15.9832 22.653 15.9103 22.7431C15.8374 22.8336 15.7616 22.9198 15.6825 23.0013C15.6006 23.0861 15.5205 23.1671 15.4419 23.2443C15.3633 23.3215 15.2899 23.3896 15.2232 23.4477H16.0594C16.1294 23.4477 16.1871 23.4573 16.2324 23.4763C16.2776 23.4954 16.3138 23.5202 16.3419 23.5507C16.3696 23.5811 16.3896 23.615 16.401 23.6512C16.4125 23.6879 16.4186 23.725 16.4186 23.7627C16.4186 23.7946 16.4177 23.8227 16.4163 23.8461C16.4148 23.8694 16.4125 23.8942 16.4096 23.9204H14.4133H14.4128Z"
      fill="white"
      stroke="white"
      stroke-width="0.140554"
      stroke-miterlimit="10"
    />
    <path
      d="M18.7727 22.4891C18.7727 22.9679 18.6851 23.3367 18.5102 23.5969C18.3349 23.8565 18.0638 23.9866 17.6959 23.9866C17.3281 23.9866 17.0518 23.8618 16.875 23.6121C16.6983 23.3624 16.6101 22.9884 16.6101 22.4891C16.6101 22.2585 16.6325 22.0508 16.6778 21.8654C16.723 21.6801 16.7916 21.5219 16.8836 21.3904C16.9755 21.2589 17.0908 21.1584 17.2295 21.0883C17.3681 21.0183 17.5292 20.983 17.7131 20.983C17.897 20.983 18.0647 21.0173 18.1991 21.0859C18.3334 21.1546 18.4425 21.2532 18.5274 21.3813C18.6122 21.51 18.6741 21.6672 18.7132 21.854C18.7527 22.0408 18.7723 22.2523 18.7723 22.4886L18.7727 22.4891ZM18.1819 22.4891C18.1819 22.2966 18.171 22.1337 18.1491 22.0007C18.1271 21.8678 18.0957 21.7616 18.0547 21.681C18.0137 21.601 17.9632 21.5424 17.9037 21.5062C17.8436 21.4695 17.776 21.4514 17.7002 21.4514C17.6245 21.4514 17.5559 21.4695 17.4944 21.5062C17.4329 21.5429 17.3815 21.601 17.3391 21.681C17.2967 21.7616 17.2648 21.8678 17.2428 22.0007C17.2209 22.1337 17.21 22.2961 17.21 22.4891C17.21 22.6821 17.2209 22.8393 17.2428 22.9708C17.2648 23.1023 17.2967 23.2081 17.3391 23.2881C17.3815 23.3686 17.4334 23.4268 17.4944 23.4635C17.5559 23.5001 17.624 23.5182 17.7002 23.5182C17.7765 23.5182 17.8441 23.5006 17.9037 23.4658C17.9632 23.4306 18.0137 23.3734 18.0547 23.2929C18.0957 23.2128 18.1271 23.1066 18.1491 22.9756C18.171 22.8441 18.1819 22.6821 18.1819 22.4896V22.4891Z"
      fill="white"
      stroke="white"
      stroke-width="0.140554"
      stroke-miterlimit="10"
    />
    <path
      d="M19.0444 23.9204V23.5002C19.0996 23.4563 19.164 23.4025 19.2369 23.3382C19.3098 23.2738 19.3865 23.2038 19.4665 23.128C19.5466 23.0523 19.6285 22.9727 19.7119 22.8893C19.7953 22.806 19.8744 22.7221 19.9506 22.6378C20.0645 22.5125 20.1555 22.3881 20.2241 22.2657C20.2927 22.1432 20.327 22.016 20.327 21.885C20.327 21.8064 20.3146 21.7406 20.2898 21.6882C20.265 21.6358 20.2331 21.5939 20.1936 21.5634C20.154 21.5329 20.1097 21.511 20.0602 21.4976C20.0106 21.4843 19.9596 21.4781 19.9067 21.4781C19.7581 21.4781 19.6271 21.5119 19.5151 21.5786C19.4027 21.6458 19.3012 21.7215 19.2107 21.8064C19.152 21.7392 19.1034 21.6749 19.0639 21.6139C19.0244 21.5524 19.0048 21.5014 19.0048 21.4605C19.0048 21.4252 19.0148 21.3933 19.0353 21.3642C19.0558 21.3351 19.0806 21.3089 19.1096 21.2856C19.1387 21.2622 19.1792 21.2332 19.2302 21.1979C19.2812 21.1627 19.3426 21.1293 19.4141 21.0974C19.4856 21.0655 19.568 21.0383 19.6614 21.0164C19.7548 20.9945 19.8596 20.9835 19.9768 20.9835C20.1083 20.9835 20.2322 20.9997 20.3489 21.0316C20.4656 21.0636 20.5662 21.1136 20.651 21.1803C20.7358 21.2475 20.8025 21.3356 20.8525 21.4452C20.9021 21.5548 20.9268 21.6853 20.9268 21.8368C20.9268 21.945 20.9092 22.0508 20.8744 22.1542C20.8396 22.2576 20.7934 22.359 20.7367 22.4586C20.68 22.5577 20.6148 22.653 20.5419 22.7431C20.469 22.8336 20.3932 22.9198 20.3141 23.0013C20.2322 23.0861 20.1521 23.1671 20.0735 23.2443C19.9949 23.3215 19.9215 23.3896 19.8548 23.4477H20.691C20.761 23.4477 20.8187 23.4573 20.8639 23.4763C20.9092 23.4954 20.9454 23.5202 20.9735 23.5507C21.0012 23.5811 21.0212 23.615 21.0326 23.6512C21.044 23.6879 21.0502 23.725 21.0502 23.7627C21.0502 23.7946 21.0493 23.8227 21.0479 23.8461C21.0464 23.8694 21.044 23.8942 21.0412 23.9204H19.0448H19.0444Z"
      fill="white"
      stroke="white"
      stroke-width="0.140554"
      stroke-miterlimit="10"
    />
    <path
      d="M21.1631 23.2243V22.826L22.2752 21.2851C22.319 21.2236 22.3752 21.1641 22.4439 21.1055C22.5125 21.0474 22.602 21.0178 22.7131 21.0178C22.7512 21.0178 22.7945 21.0245 22.8446 21.0374C22.8941 21.0507 22.9308 21.0659 22.9541 21.0831V22.7902H23.0899C23.1747 22.7902 23.2338 22.8093 23.2672 22.8469C23.301 22.885 23.3177 22.936 23.3177 23.0003C23.3177 23.0266 23.3162 23.0523 23.3134 23.0771C23.3105 23.1018 23.3077 23.1261 23.3048 23.1495L23.2962 23.2238H22.9546V23.9199H22.359V23.2238H21.1641L21.1631 23.2243ZM22.3586 22.7778V21.8059L21.6363 22.7778H22.3586Z"
      fill="white"
      stroke="white"
      stroke-width="0.140554"
      stroke-miterlimit="10"
    />
  </g>
  <defs>
    <clipPath id="clip0_1_93">
      <rect width="37.7147" height="31" fill="white" />
    </clipPath>
  </defs>
</svg>
