<svg width="88" height="34" viewBox="0 0 88 34" fill="none" xmlns="http://www.w3.org/2000/svg">
  <path
    d="M42.0481 20.2341C41.0218 21.478 39.6589 22.0917 37.9763 22.0917C36.4451 22.0917 35.1663 21.6273 34.1568 20.6985C33.1472 19.7697 32.6592 18.5424 32.6592 17.0166C32.6592 15.4741 33.164 14.2302 34.1568 13.3014C35.1663 12.3561 36.3946 11.8917 37.909 11.8917C39.5579 11.8917 40.8872 12.5054 41.8967 13.7493L40.4665 15.1922C39.8776 14.3629 38.9017 13.8488 37.808 13.8488C37.0172 13.8488 36.3273 14.1307 35.7384 14.6946C35.1495 15.2419 34.8466 16.0049 34.8466 16.9668C34.8466 17.9454 35.1495 18.7083 35.7384 19.2722C36.3273 19.8361 37.0508 20.118 37.9258 20.118C39.0531 20.118 39.9617 19.6536 40.6516 18.7414L42.0481 20.2341Z"
    fill="#00CAAC"
  />
  <path
    d="M44.4543 13.3512C43.4615 14.3132 42.9736 15.5239 42.9736 16.9834C42.9736 18.4595 43.4784 19.6702 44.4543 20.6488C45.447 21.6107 46.6753 22.0917 48.1223 22.0917C49.5862 22.0917 50.8145 21.6107 51.8072 20.6488C52.8 19.6702 53.3047 18.4595 53.3047 16.9834C53.3047 15.5239 52.8 14.2966 51.8072 13.3512C50.7977 12.3727 49.5694 11.8917 48.1223 11.8917C46.6585 11.8917 45.4302 12.3727 44.4543 13.3512ZM45.9686 19.2058C45.4302 18.5922 45.161 17.8624 45.161 16.9834C45.161 16.1044 45.4302 15.3746 45.9686 14.7775C46.5239 14.1639 47.2642 13.8819 48.1728 13.8819C49.0478 13.8819 49.7545 14.1971 50.3097 14.7941C50.865 15.4078 51.151 16.1375 51.151 17C51.151 17.8956 50.8818 18.6254 50.3434 19.2224C49.8218 19.8361 49.0814 20.118 48.1896 20.118C47.2306 20.118 46.507 19.8195 45.9686 19.2058Z"
    fill="#00CAAC"
  />
  <path
    d="M57.343 12.041L53.4225 21.9258H55.6268L56.4176 19.9853H60.2876L61.0952 21.9258H63.2994L59.379 12.041H57.343ZM59.5977 18.1278H57.1074L58.3526 14.8936L59.5977 18.1278Z"
    fill="#00CAAC"
  />
  <path
    d="M68.6164 18.0615C69.5418 18.2273 70.0129 18.5756 70.0129 19.1063C70.0129 19.72 69.3567 20.1844 68.263 20.1844C67.1189 20.1844 66.1766 19.7034 65.4363 18.758L63.9724 20.2175C64.881 21.3288 66.3785 22.1083 68.1284 22.1083C69.3231 22.1083 70.2822 21.8263 71.0225 21.279C71.746 20.7317 72.1162 20.0019 72.1162 19.0897C72.1162 17.3815 70.9889 16.3532 68.7342 16.0049L67.7414 15.8556C66.7824 15.6897 66.3112 15.3415 66.3112 14.8107C66.3112 14.2302 66.8833 13.8322 67.7919 13.8322C68.7342 13.8322 69.5755 14.2136 70.3326 14.9766L71.7628 13.5005C70.7533 12.439 69.4577 11.9249 67.8929 11.9249C66.8833 11.9249 66.0084 12.1902 65.268 12.7375C64.5445 13.2683 64.1743 13.998 64.1743 14.9102C64.1743 16.5522 65.369 17.5473 67.3376 17.879L68.6164 18.0615Z"
    fill="#00CAAC"
  />
  <path
    d="M73.2435 13.9814H76.1039V21.9258H78.224V13.9814H81.1013V12.041H73.2435V13.9814Z"
    fill="#00CAAC"
  />
  <path
    d="M27.4432 18.6585C26.6356 23.5015 22.3786 27.1834 17.2298 27.1834C11.5258 27.1834 6.88184 22.6224 6.88184 16.9834C6.88184 11.3444 11.5258 6.79999 17.2298 6.79999C22.3618 6.79999 26.6356 10.4985 27.4432 15.3249H24.9193C24.1453 11.8419 20.9989 9.23804 17.2467 9.23804C12.9055 9.23804 9.38891 12.7044 9.38891 16.9834C9.38891 21.2624 12.9055 24.7288 17.2467 24.7288C21.0157 24.7288 24.1621 22.1249 24.9193 18.6419H27.4432V18.6585ZM20.6623 18.6585C20.0398 19.9024 18.7442 20.7649 17.2467 20.7649C15.7491 20.7649 14.4535 19.9024 13.831 18.6585H11.1556C11.896 21.279 14.3358 23.2029 17.2298 23.2029C20.1239 23.2029 22.5637 21.279 23.304 18.6585H20.6623Z"
    fill="#00CAAC"
  />
</svg>
