<svg width="15" height="15" viewBox="0 0 15 15" fill="none" xmlns="http://www.w3.org/2000/svg">
  <g clip-path="url(#clip0_1_137)">
    <path
      d="M8.28324 6.33376C8.49127 6.09988 8.66305 5.86126 8.8758 5.66056C9.5314 5.03951 10.3084 4.72662 11.2145 4.73452C11.7125 4.73926 12.2058 4.77403 12.6849 4.91467C13.7833 5.23389 14.4216 5.99084 14.7258 7.06701C14.9543 7.87453 14.9968 8.7026 14.9984 9.53383C15.0016 11.2864 14.9937 13.0405 14.9984 14.793C14.9984 14.9573 14.9527 15 14.792 14.9984C13.8921 14.9905 12.9906 14.9905 12.0892 14.9984C11.93 14.9984 11.8969 14.951 11.8969 14.8009C11.9016 13.1321 11.9032 11.4649 11.8969 9.79615C11.8969 9.37738 11.8686 8.96019 11.7519 8.55405C11.536 7.805 11.0018 7.42415 10.2201 7.46524C9.1516 7.52213 8.59686 8.05152 8.45975 9.14192C8.42666 9.40266 8.41247 9.66183 8.41247 9.92415C8.41247 11.5471 8.4109 13.1685 8.4172 14.7914C8.4172 14.9526 8.3778 15.0016 8.21232 15C7.30457 14.9921 6.39839 14.9937 5.49064 15C5.34565 15 5.3031 14.9621 5.3031 14.8135C5.30783 11.6008 5.30783 8.3897 5.3031 5.177C5.3031 5.01739 5.35511 4.98104 5.50482 4.98262C6.36687 4.98895 7.22735 4.99053 8.0894 4.98262C8.24857 4.98262 8.28955 5.03319 8.28482 5.18332C8.27536 5.56733 8.28167 5.95134 8.28167 6.33534L8.28324 6.33376Z"
      fill="#53749B"
    />
    <path
      d="M3.34892 10.0048C3.34892 11.5945 3.34577 13.1827 3.35208 14.7725C3.35208 14.9494 3.30952 15.0032 3.12671 15C2.22684 14.9905 1.32539 14.9921 0.425515 15C0.280527 15 0.237976 14.9652 0.237976 14.8151C0.242704 11.5977 0.242704 8.38023 0.237976 5.16278C0.237976 5.03004 0.269495 4.98263 0.411332 4.98263C1.32539 4.98895 2.23787 4.99053 3.15193 4.98263C3.32686 4.98105 3.3505 5.049 3.3505 5.20071C3.34577 6.80311 3.34735 8.40551 3.34735 10.0063L3.34892 10.0048Z"
      fill="#53749B"
    />
    <path
      d="M3.59635 1.79362C3.59635 2.79077 2.78946 3.60461 1.7966 3.60461C0.817933 3.60461 0.00316105 2.79235 9.13179e-06 1.80942C-0.00314279 0.817004 0.810053 0 1.80133 0C2.78473 0 3.59635 0.810683 3.59635 1.79362Z"
      fill="#53749B"
    />
  </g>
  <defs>
    <clipPath id="clip0_1_137">
      <rect width="15" height="15" fill="white" />
    </clipPath>
  </defs>
</svg>
