<svg xmlns="http://www.w3.org/2000/svg" viewBox="0 0 120 220" fill="currentColor">
	<path d="M13.176 7.612c3.233-1.976 6.481-3.105 10.163-2.061 1.026.291 1.765.271 2.637-.601 2.262-2.261 5.058-2.819 8.099-1.862 2.862.9 5.669 1.989 8.557 2.791 2.643.734 5.284 1.494 8.118 1.397 2.37-.081 4.76.203 7.129.444.632.064 1.375.421 1.801.889 1.566 1.718 2.375 3.782 2.112 6.139-.063.565-.387 1.226-.804 1.605-1.676 1.522-3.389 3.011-5.174 4.4-3.241 2.521-3.147 4.755-.626 7.311.373.378.783.721 1.172 1.076-3.35 5.371-6.705 10.645-9.936 15.996-.882 1.461-1.382 3.152-2.07 4.732-.33.756-.614 1.549-1.059 2.233-.465.715-.411 1.189.287 1.652 1.686 1.117 3.376 2.229 5.028 3.395.557.393 1.024.925 1.494 1.429.732.784 1.354 1.687 2.158 2.383 2.995 2.59 6.13 5.024 9.042 7.703 1.595 1.467 2.865 3.296 4.248 4.989.518.634 1.03 1.305 1.374 2.04.204.436.077 1.03.098 1.552-.419-.136-.976-.144-1.236-.427-2.32-2.524-4.587-5.097-6.872-7.653-.245-.274-.481-.563-.759-.801-1.719-1.47-3.517-2.854-5.162-4.403-3.805-3.586-7.523-7.265-11.313-10.868-.603-.573-.769-.999-.395-1.8 1.112-2.382 2.069-4.837 3.192-7.213.507-1.071 1.271-2.018 1.908-3.028.946-1.5 1.907-2.991 2.816-4.514 1.308-2.191 2.543-4.427 3.876-6.603.562-.918.336-1.423-.569-1.814-2.075-.894-4.159-1.769-6.206-2.725-.65-.304-1.15-.923-1.791-1.256-2.963-1.54-5.953-3.031-8.932-4.54-.592-.3-.913-.127-1.048.537-.501 2.453-1.199 4.88-1.507 7.356-.71 5.719-1.923 11.321-3.444 16.865-.206.751-.545 1.466-.82 2.199-.433 1.151-.85 2.308-1.301 3.452-.226.573-.418 1.2-.793 1.667a22.399 22.399 0 0 1-3.283 3.348c.129-.724.167-1.48.405-2.166.555-1.596 1.088-3.217 1.84-4.722 2.401-4.804 3.462-9.91 4.032-15.224.491-4.569.874-9.203 2.725-13.531.406-.949.292-2.207 1.62-2.433.612-.104 1.395-.097 1.896.203 1.726 1.034 3.344 2.248 5.046 3.326.365.231.909.178 1.371.256-.051-.458-.001-.958-.17-1.367-1.638-3.953-5.064-5.252-8.877-5.639-1.933-.196-3.927.324-5.896.349-1.38.018-2.861.016-4.128-.447-3.635-1.326-7.227-2.82-10.073-6.016zm37.492 17.753c.142-.859.03-1.689.391-2.109 1.628-1.895 3.102-4.192 5.181-5.355 2.337-1.308 3.507-2.648 3.101-5.277a1.529 1.529 0 0 1 .007-.496c.222-1.218-.391-1.898-1.472-2.198-.584-.162-1.207-.206-1.816-.254-2.412-.188-4.889-.068-7.224-.591-4.727-1.059-9.392-2.411-14.053-3.743-2.585-.739-4.962-1.031-7.121 1.103-1.018 1.007-2.297 1.436-3.857.908-1.924-.65-3.94-.89-5.928-.127-.29.111-.768.344-.759.495.019.305.248.684.507.87.802.577 1.7 1.022 2.486 1.618 2.507 1.897 5.259 2.296 8.298 1.708 2.823-.546 5.666-.423 8.421.489 1.066.353 2.184.714 3.09 1.344 1.001.698 1.763 1.734 2.67 2.577 1.334 1.239 1.702 2.649 1.043 4.382-.119.312.098 1.021.367 1.17 2.153 1.192 4.356 2.293 6.668 3.486zm18.031 1.023c.397 1.917.851 3.433.999 4.979.259 2.711.296 5.442.498 8.159.066.884.357 1.751.542 2.626.316 1.489.813 2.966.91 4.469.262 4.087.234 8.195.552 12.277.227 2.916.728 5.822 1.287 8.698.653 3.361.756 6.737.661 10.135-.007.253-.173.502-.265.753l-.382.099c-.429-1.031-1.05-2.025-1.251-3.098-.646-3.441-1.239-6.9-1.652-10.376-.289-2.433-.25-4.905-.356-7.36-.007-.164.015-.33.004-.493-.174-2.674-.498-5.348-.484-8.02.013-2.49-.553-4.832-1.116-7.207-.236-.997-.435-2.047-.386-3.06.182-3.739-.335-7.327-1.81-10.784-.367-.859-.506-1.825-.684-2.755-.176-.922.172-1.439 1.197-1.317 2.809.336 5.62.662 8.429.995.356.042.709.1 1.39.197-.334-.573-.468-.948-.719-1.21-2.145-2.242-4.222-4.562-6.512-6.645-.978-.89-2.04-1.593-2.604-2.867-.338-.764-.244-1.296.287-1.903 1.899-2.169 5.101-2.601 7.64-1.613 2.561.997 5.049 2.189 7.536 3.367 2.189 1.036 4.489 1.185 6.858 1.256 2.514.075 4.516-.843 6.642-2.123 1.554-.936 3.408-2.062 5.69-.629 2.061 1.295 4.118 2.557 5.98 4.125.305.256.621.615.715.983.205.799.27 1.634.393 2.455-.793-.06-1.596-.058-2.376-.193-1.514-.263-2.968-.425-4.449.293-.986.478-2.087.838-3.17.963-1.867.216-2.843 1.511-3.91 2.779-.445.529-.966.995-1.466 1.475-.948.907-1.907 1.804-2.939 2.778.708.653 1.271 1.254 1.914 1.749 1.254.967 1.382 2.204 1.144 3.661-.681 4.156-1.302 8.321-1.917 12.487-.41 2.775-.991 5.549-1.101 8.339-.206 5.201-.139 10.413-.149 15.62-.002.99.188 1.979.254 2.971.18 2.724.297 5.453.518 8.173.285 3.528.62 7.052 1.002 10.571.083.759.477 1.482.699 2.23.098.331.123.684.023 1.07-1.316-1.478-2.463-2.999-2.691-5.013-.636-5.627-1.416-11.242-1.878-16.884-.398-4.86-.643-9.754-.561-14.626.055-3.236.811-6.459 1.242-9.689.404-3.03.779-6.063 1.192-9.092.285-2.089.607-4.173.923-6.257.266-1.756-.973-3.781-2.682-4.221-3.378-.869-6.736-1.88-10.164-2.469-3.065-.529-6.21-.565-9.447-.828zm36.832-8.669c-.755-.597-1.551-1.173-2.287-1.818-2.371-2.08-5.488-1.205-7.685.095-.557.33-1.148.818-1.739.841-2.992.119-5.994.239-8.98.093-1.597-.078-3.239-.312-4.671-1.364-1.418-1.042-3.035-1.806-4.536-2.737-1.359-.843-2.848-.816-4.315-.628-1.005.129-2.092.74-2.043 1.806.048 1.023.476 2.168 1.695 2.665.599.244 1.285.538 1.659 1.022 1.479 1.913 2.857 3.905 4.252 5.882.158.224.282.556.251.817-.11.91.413 1.092 1.145 1.233 3.302.635 6.591 1.333 9.896 1.951.416.078 1.233-.09 1.291-.301.602-2.209 2.551-3.201 4.073-4.489 1.615-1.366 3.427-2.634 5.361-3.446 1.983-.833 4.217-1.062 6.633-1.622zm-56.402 117.45c.729-1.76 1.57-3.738 3.981-3.542 1.313.106 2.053 1.318 2.841 2.264l-.208.323c-.452-.211-.918-.396-1.354-.638-1.926-1.07-4.138-.036-4.505 2.159-.212 1.268.178 2.3.92 3.443 1.361 2.095 2.357 4.432 3.456 6.692.429.882.759 1.818 1.075 2.75.539 1.596 1.054 3.2 1.546 4.811.338 1.102.812 2.204.9 3.332.249 3.167.406 6.347.427 9.523.006.891-.549 1.8-.906 2.677-1.117 2.748-2.216 5.505-3.42 8.215-.516 1.162-2.817 2.029-4.233 1.668-1.821-.464-3.618-.865-5.1-2.298-1.43-1.383-3.205-2.405-4.815-3.602a7.33 7.33 0 0 1-1.108-.989 3011.663 3011.663 0 0 1-8.568-9.652c-.162-.183-.399-.397-.406-.604-.099-2.691-2.006-4.622-2.883-6.981-.042-.114-.101-.252-.195-.313-2.053-1.335-1.801-3.441-2.04-5.503-.249-2.157-1.089-4.237-1.53-6.381-.286-1.391-.321-2.835-.479-4.359l1.415-.07c.755 3.938 1.938 7.632 4.138 11.413.969-4.422 3.501-6.573 7.791-6.476.11-.56.163-1.089.32-1.584.675-2.14 2.962-3.879 5.219-3.846 1.707.024 3.411.23 5.24.364-.34-.713-.587-1.46-1.014-2.083-.996-1.454-2.059-2.864-3.136-4.26-.434-.563-.832-1.072-.242-1.737.567-.639 1.307-.888 1.961-.295s1.145 1.373 1.676 2.095c.215.292.282.711.529.959.818.818 1.688 1.583 2.707 2.525zm-10.809 9.704.225-.519c.257.029.546-.01.764.097 1.356.672 2.681 1.411 4.053 2.046.332.154.934.162 1.187-.043.7-.566 1.38-1.21 1.89-1.948 1.36-1.966.247-4.874-2.091-5.288a11.467 11.467 0 0 0-3.933.008c-2.105.374-3.473 2.871-2.809 4.579.924 2.378 1.813 4.86.847 7.393-1.065 2.792-2.821 5.109-6.388 4.095-.638-.181-1.316-.218-2.217-.359.255.652.355 1.05.553 1.392 1.064 1.843 2.191 3.651 3.224 5.511 1.96 3.53 4.934 6.206 7.817 8.858 2.57 2.364 5.686 4.129 8.615 6.196.532-.569 1.132-1.095 1.583-1.728.46-.644.758-1.402 1.155-2.094.32-.558.853-1.05.997-1.644.879-3.615 1.769-7.234 1.563-11.011-.061-1.116.009-2.239-.002-3.358-.006-.577.086-1.21-.112-1.721-.895-2.302-1.865-4.574-2.832-6.847-.995-2.337-2.654-4.404-2.834-7.074-.004-.064-.191-.115-.153-.094-.467 1.352-.867 2.733-1.417 4.051-1.068 2.56-4.312 3.272-6.372 1.454a3.04 3.04 0 0 0-.49-.362c-.94-.534-1.883-1.06-2.823-1.59zm-1.36 4.224.365-.106c-.471-1.195-.861-2.432-1.445-3.568-.334-.651-.986-1.168-1.852-.723-1.133.581-2.433.995-3.327 1.838-.962.908-2.001 2.161-2.178 3.385-.304 2.094 3.381 4.637 5.45 4.051a.77.77 0 0 0 .317-.185c1.335-1.302 3.105-2.352 2.67-4.692zm57.471-40.329c-1.146-2.278-.931-5.103-2.932-7.029-1.189-1.145-2.6-1.902-4.283-1.961-3.878-.135-7.678.08-11.435 1.369-2.182.748-4.602.804-6.92 1.136-2.358.338-4.734.56-7.078.973-1.497.263-1.743.944-1.106 2.258 1.694 3.497 1.442 6.853-.736 10.069-.184.271-.303.586-.454.879-.139.268-.282.534-.318.603.053-2.482.179-5.101.129-7.716-.02-1.03-.396-2.064-.686-3.074-.181-.631-.573-1.201-.747-1.833-.219-.8-.014-1.326.793-1.918 2.789-2.046 6.11-2.012 9.247-2.69 1.567-.339 3.168-.515 4.747-.805 4.527-.831 8.999-2.156 13.672-1.728 1.46.134 2.921.458 4.335.858 2.928.829 3.921 3.354 4.764 5.891.948 2.855 1.342 5.825 1.019 8.821-.243 2.253-.812 4.468-1.102 6.718-.556 4.319-2.394 8.204-3.917 12.2-.293.768-.385 1.623-.735 2.358-1.146 2.409-2.307 4.817-3.604 7.146-.337.604-1.374 1.416-1.772 1.268-1.027-.381-.906-1.504-.503-2.359.958-2.035 1.96-4.054 3.053-6.018 1.443-2.593 2.315-5.366 3.037-8.23.705-2.796 1.737-5.508 2.443-8.303.433-1.713.564-3.51.727-5.278.031-.34-.334-.896-.66-1.057-1.248-.615-2.521-1.062-3.308-2.419-.331-.57-1.271-.918-1.999-1.091-1.277-.304-2.607-.571-3.909-.545-4.448.091-8.895.293-13.34.505-1.226.058-2.44.334-3.666.432-.294.024-.612-.262-.919-.405.223-.311.388-.819.677-.903 6.542-1.918 13.19-2.931 19.986-1.783 1.276.216 2.462 1.076 3.641 1.727 1.215.671 2.371 1.45 3.552 2.182.101-.083.204-.166.307-.248zm-75.69 100.867c-.82.494-1.681.931-2.452 1.492-1.93 1.404-4.005 2.54-6.358 2.899-.917.14-2.159-.104-2.822-.676-.435-.376-.325-1.737-.047-2.507.37-1.024.242-1.537-.765-1.88-1.046-.355-1.307-1.049-.783-2.035.789-1.485 1.447-2.997 3.469-3.314 1.053-.165 2.048-.849 3.015-1.394 3.712-2.092 7.745-3.236 11.911-3.787 1.283-.17 2.699.461 4.01.869.293.091.402.783.595 1.199-.443.025-.988.226-1.309.039-.736-.428-1.341-.292-2.098-.069-2.287.673-4.615 1.206-6.92 1.82-1.068.284-2.136.583-3.174.959a115.449 115.449 0 0 0-5.363 2.087c-.435.182-.762.621-1.385 1.152.571.031.793.108.954.041 2.129-.89 4.232-1.847 6.382-2.684.861-.335 1.814-.515 2.737-.57.383-.023.949.384 1.144.751.142.266-.062.972-.332 1.158-.865.594-1.81 1.085-2.765 1.527-1.939.899-3.945 1.663-5.835 2.652-.565.295-.837 1.154-1.243 1.754l.362.459c.73-.258 1.495-.443 2.183-.785 3.458-1.718 6.888-3.492 10.349-5.204.438-.216 1.073-.379 1.49-.223 1.176.441 1.32 1.569.378 2.429-.393.359-.892.601-1.29.957-.527.47-1.002 1-1.5 1.503l.198.325c.286-.045.597-.031.854-.143 3.159-1.382 6.328-2.744 9.451-4.202.955-.446 1.756-1.211 2.672-1.754.737-.438 1.51-.856 2.32-1.12 3.135-1.022 6.371-1.223 9.644-1.061a9.72 9.72 0 0 0 2.519-.176c-.593-1.215-1.649-1.558-2.701-1.797-2.161-.49-4.341-.898-6.518-1.313-.294-.056-.665-.043-.92.091-1.006.528-1.717.082-2.601-.773.955-.365 1.767-.924 2.588-.939 1.889-.029 3.777.09 5.648.355 1.552.216 3.077.592 4.551 1.124 1.132.411 2.174 1.117 3.192 1.79.812.536.69 1.254.04 1.875-.355.339-.734.708-1.173.892-2.067.866-4.043 1.778-6.482.977-2.089-.686-4.279.002-6.232.937-1.655.793-3.175 1.868-4.767 2.798-.567.331-1.155.636-1.756.897-2.106.916-4.219 1.82-6.337 2.707-1.88.788-3.771 1.55-5.658 2.319-.152.062-.32.14-.474.127-.676-.054-1.349-.139-2.023-.212.16-.615.253-1.258.495-1.838.316-.756.752-1.462 1.136-2.189-.069-.103-.136-.209-.204-.316zm53.983-6.453c2.04-3.001 6.7-5.275 9.515-5.032-.66 1.553-3.188 1.377-3.132 3.598.371 0 .75.099 1.048-.015 3.703-1.422 8.003 1.291 9.657 4.216 1.338 2.365 2.664 4.737 4.033 7.083.204.349.643.829.922.797.348-.04.88-.523.916-.859.118-1.11.247-2.288-.006-3.349-.262-1.098-1.033-2.065-1.444-3.142-.168-.44-.054-1.441.07-1.464.618-.119 1.513-.259 1.891.08 2.515 2.258 4.92 4.64 7.37 6.972.195.186.456.302.994.65-.23-.641-.277-1.013-.472-1.271a88.704 88.704 0 0 0-2.608-3.289c-.542-.651-.568-1.222.017-1.859.608-.661 1.166-.561 1.841-.085 2.251 1.585 4.527 3.135 6.799 4.691.291.199.613.354.92.53l.33-.242c-.226-.404-.36-.925-.695-1.192-1.667-1.335-3.489-2.49-5.066-3.92-2.452-2.224-5.792-2.535-8.471-4.226-.278-.175-.585-.302-.878-.453-.574-.295-1.202-.639-.783-1.4.384-.698.987-1.381 1.894-.888 4.048 2.197 8.51 3.648 12.111 6.645 1.291 1.074 2.538 2.24 3.613 3.526 1.158 1.384 1.886 3.032 1.558 4.932-.089.514-.323 1.409-.534 1.422-.714.044-1.57-.039-2.15-.416-1.563-1.018-3.006-2.221-4.515-3.326-.173-.126-.459-.097-.462-.097.288 1.551.615 3.109.853 4.68.135.895-.316 1.498-1.199 1.767-.902.275-1.198-.423-1.668-.942-1.179-1.3-2.444-2.522-3.619-3.826-.454-.504-.74-1.157-1.139-1.717-.248-.347-.563-.645-.848-.966-.235.351-.626.68-.68 1.057-.278 1.951-1.377 3.318-2.895 4.438-.892.658-1.705.807-2.417-.24-1.135-1.667-2.276-3.33-3.406-5-1.379-2.038-2.72-4.102-4.139-6.112-.606-.858-1.52-1.229-2.6-1.151-2.453.177-4.908.451-7.361.44-1.008-.009-2.013-.646-3.165-1.045z"/>
	<path d="M57.905 147.432c-.35-.383-.508-.479-.502-.562.114-1.603-.583-3.019-.911-4.515-.369-1.679-1.312-2.588-2.511-3.465-.664-.485-1.415-.856-2.047-1.376-.263-.216-.321-.685-.472-1.039.328-.124.697-.412.977-.342.902.226 1.809.503 2.645.907 2.22 1.072 3.486.921 5.205-.822 1.02-1.034 2.584-1.605 2.897-3.242.107-.559.065-1.183-.065-1.741-.118-.51-.404-.998-.688-1.451-1.271-2.023-1.934-4.188-1.642-6.601.028-.228-.024-.466-.054-.928-.835.599-1.556 1.049-2.201 1.59-2.013 1.688-4.35 2.1-6.853 1.758-1.278-.175-2.426-.729-2.82-2.092-.535-1.848-1.291-3.716-1.361-5.598-.157-4.198-3.043-5.362-6.358-4.392-3.402.996-6.7 2.64-8.632 6.027-.172.301-.715.388-1.085.574-.119-.404-.459-.927-.319-1.194.741-1.408 1.382-2.983 2.487-4.052 1.053-1.018 2.215-2.159 3.989-2.245.866-.042 1.728-.73 2.54-1.214 1.171-.698 2.37-.903 3.673-.492.784.247 1.571.487 2.362.711 3.214.909 4.172 3.317 4.197 6.349.005.58-.014 1.161-.005 1.741.046 2.795 1.477 3.816 4.2 3.395 2.757-.427 3.813-2.618 5.258-4.477.391-.503 1.105-1.342 1.375-1.24.819.311 1.91.871 2.141 1.581.539 1.683.828 3.437.859 5.204.031 1.71.267 3.263 1.157 4.729 2.355 3.88.053 7.558-3.005 9.155-.718.375-1.37.889-2.017 1.386-.985.757-1.622 1.609-.741 2.896.176.257.184.76.063 1.068-.507 1.283-1.091 2.538-1.736 4.009zm-48.176-7.335c.369 1.333.683 2.541 2.003 3.199.749.374 1.27 1.22 1.877 1.869 1.556 1.665 3.617 1.832 5.68 1.85 1.321.012 2.399.423 3.606 1.561-.686.578-1.364 1.094-1.968 1.685-.264.258-.608.81-.505.988.197.339.662.624 1.064.715.552.126 1.158.122 1.724.047.941-.125 1.302.396 1.377 1.174.088.905.202 1.842.061 2.725-.223 1.398.263 2.316 1.448 2.966.232.128.421.336.745.601-1.386-.213-3.148-1.389-3.2-2.198-.085-1.31-.023-2.63-.023-4.387-.781.596-1.364.925-1.792 1.396-.583.644-1.108.939-1.89.333-.657-.508-1.335-.568-2.191-.299-.92.289-1.95.226-3.065.329-.011-1.039-.429-1.998.931-2.68.946-.474 1.652-1.43 2.637-2.326-1.717-.567-3.187-1.21-4.723-1.521-2.156-.437-3.232-1.971-4.242-3.655-.126-.209-.122-.542-.289-.673-1.525-1.194-1.407-3.077-1.951-4.671-.357-1.045.467-2.657 1.5-2.929.456-.12 1.231-.011 1.494.304 1.202 1.434 2.525 2.492 4.83 2.145-.165-2.417-.253-4.993-.543-7.546-.252-2.221-.095-4.379.5-6.506.101-.362.558-.697.928-.898 1.341-.727 2.724-1.375 4.075-2.083 1.065-.559 2.1-1.153 3.386-.921.254.046.558-.105.822-.21 1.245-.495 2.399-.267 3.216.725.168.204.28.654.168.842-.156.262-.695.61-.812.532-1.327-.886-2.581-.07-3.831.137-1.926.318-3.846.809-5.146 2.423-.483.599-.924 1.439-.932 2.174-.016 1.51.306 3.02.429 4.535.205 2.508.558 5.031.425 7.524-.041.771-1.346 1.823-2.271 2.117-1.414.45-2.924 0-4.254-.794-.405-.24-.863-.401-1.298-.599zm64.013 10.011c4.931.863 7.286 3.237 10.091 12.271l9.34-3.552c-1.144-2.849-2.537-5.603-5.445-7.28-2.029-1.171-3.976-2.484-5.962-3.729-.978-.613-1.975-1.196-2.938-1.831-.489-.323-1.203-.616-.647-1.427.519-.757 1.143-1.449 2.136-.829 1.432.894 2.797 1.898 4.209 2.827.826.543 1.66 1.086 2.539 1.534 1.49.76 2.897 1.588 3.749 3.116.116.208.312.415.522.521 2.336 1.181 2.802 3.381 3.166 5.678.103.648.374 1.315.731 1.867.678 1.05.313 1.906-.896 2.23a375.348 375.348 0 0 0-10.084 2.851c-1.348.402-2.875-.462-3.161-1.884-.816-4.062-2.084-7.84-5.925-10.165-.696-.42-1.717-.958-1.425-2.198zm10.348 16.015c2.857-1.795 5.901-2.655 9.32-1.887.872.196 1.793.185 2.693.238.794.046 1.806.01 1.79 1.044-.016 1.076-1.068.913-1.832.942-2.263.087-4.526.156-6.789.251-1.047.044-1.37.621-1.294 1.649.242 3.255.324 6.525.64 9.772.302 3.101-.077 6.133-.475 9.185-.219 1.678-.256 3.379-.46 5.058-.149 1.224-.422 2.434-.674 3.642-.092.44-.199.921-.454 1.269-.206.282-.645.392-.98.578-.162-.3-.423-.586-.47-.903-.449-3.016.098-5.98.381-8.976.388-4.105.461-8.243.569-12.369.045-1.725-.204-3.455-.239-5.185a7.641 7.641 0 0 1 .296-2.189c.245-.871.012-1.232-.883-1.303-.406-.032-.795-.272-1.192-.418.019-.133.036-.266.053-.398zM28.586 62.561c2.173-.367 3.895.083 5.441 1.435 3.269 2.859 6.379 5.87 9.156 9.218.185.222.42.408.577.647 2.252 3.424 4.461 6.877 6.756 10.271.966 1.428 2.109 2.736 3.174 4.096.151.193.358.354.468.567 1.415 2.73 2.819 5.467 4.222 8.204.15.293.414.616.38.895-.058.478-.31.931-.481 1.395-.345-.262-.826-.45-1.012-.797-.931-1.739-1.78-3.522-2.671-5.283-.129-.254-.334-.469-.501-.704-1.476-2.076-2.94-4.161-4.432-6.226-1.178-1.63-2.429-3.208-3.573-4.862-1.007-1.455-1.86-3.019-2.874-4.469-1.275-1.823-2.459-3.768-4.018-5.319-2.333-2.322-4.949-4.36-7.475-6.482-.285-.239-.768-.243-1.16-.351-1.085-.298-1.762-.953-1.977-2.235z"/>
	<path d="M94.646 201.081c-1.57-1.02-2.042-2.246-2.116-3.631-.075-1.405.062-2.823-.032-4.226-.259-3.875-.693-7.74-.862-11.617-.157-3.598-.064-7.207-.07-10.812 0-.2.043-.443.16-.592.34-.436.727-.834 1.095-1.247.227.498.614.983.654 1.496.225 2.887.105 5.826.589 8.663 1.081 6.334.943 12.696.898 19.065-.006.871-.184 1.741-.316 2.901zm-59.947-32.969c-.361 1.373-.665 2.765-1.096 4.116-.814 2.554-1.872 5.042-2.518 7.636-1.057 4.243-1.953 8.538-1.514 12.971.028.28.014.709.177.808 1.493.905.717 2.324.718 3.494 0 .418-.779.966-1.313 1.191-.201.084-.717-.575-1.081-.905-.055-.05-.086-.149-.091-.228-.195-3.206-1.417-6.36-.481-9.622.023-.079.061-.163.055-.241-.249-3.348 1.196-6.397 1.971-9.509.822-3.301 2.734-6.329 4.19-9.467.084-.181.357-.274.543-.408l.44.164zm34.681-22.904c-.26.879-.426 1.915-.869 2.814-.557 1.13-1.635 1.38-2.71.726-.576-.351-.912-.27-1.389.16-.917.825-2.058 1.442-2.829 2.376-.647.784-.929 1.884-1.315 2.868-.211.537-.053 1.441-.95 1.28-.827-.148-1.754-.48-1.778-1.588-.011-.477.074-1.062.347-1.42 1.108-1.451 1.865-3.241 3.723-4.006.836-.344 1.609-.853 2.457-1.157.977-.35 1.556-.986 1.937-1.926.508-1.254.339-1.483-1.036-1.802-.943-.219-1.861-.618-2.731-1.057-.728-.368-.643-1.102.021-1.302 1.016-.306 2.267-.678 3.161-.339 1.286.489 2.408 1.517 3.458 2.472.369.334.318 1.132.503 1.901zm-32.773 26.115c.23.814.713 1.649.649 2.439-.343 4.23-.856 8.445-1.242 12.672a113.83 113.83 0 0 0-.457 7.521c-.024 1.004.363 2.011.46 3.026.052.545.299 1.362-.731 1.356-.846-.005-1.777-.044-1.757-1.224.102-5.943-.345-11.91.885-17.803.336-1.61.341-3.288.631-4.911.187-1.047.615-2.051.935-3.074l.627-.002zm42.733-84.93c-6.242-3.86-12.722-4.193-19.329-1.001-.394-1.596-.267-1.883 1.342-2.533 5.209-2.103 10.321-2.052 15.309.738.6.336 1.269.584 1.937.754 1.246.316 1.355.493.741 2.042zm-44.028 71.456c.392.249.839.442 1.167.759 1.07 1.033 2.172 2.047 3.123 3.186 1.652 1.98 4.966 2.074 6.744 1.357 2.172-.876 2.691-2.178 2.444-4.514-.281-2.656-.868-5.107-2.7-7.151-.208-.232-.208-.828-.063-1.144.096-.208.627-.305.958-.295 1.153.034 2.073.958 2.38 2.106.296 1.109.904 2.156 1.067 3.275.272 1.863.432 3.768.364 5.645-.027.754-.767 1.489-1.208 2.217-.135.21-.311.39-.517.531-1.01.724-1.952 1.843-3.065 2.06-2.396.467-4.823.063-6.691-1.723-1.364-1.305-2.574-2.782-3.764-4.255-.371-.46-.452-1.157-.665-1.745l.426-.309zm9.162-14.326c-.177.112-.666.598-.844.502-.778-.419-1.466-1.008-2.187-1.535.55-.331 1.07-.85 1.658-.946.806-.133 1.47.774 1.373 1.979zm-9.029 5.953-1.653 1.557c-.395-.48-1.077-.947-1.099-1.443-.021-.453.638-1.271 1.063-1.318.436-.048.954.643 1.689 1.204z"/>
</svg>
