<svg xmlns="http://www.w3.org/2000/svg" viewBox="0 0 100 100">
  <rect width="100" height="100" rx="20"/>
  <path fill="#fff" d="M47.97 59.45h-7.02v18.09q-.81.18-2.29.45-1.49.27-3.2.27-3.41 0-4.81-1.26-1.4-1.26-1.4-4.23V27.59q0-1.71.91-2.61.89-.9 2.51-1.44 1.44-.45 3.2-.81 1.76-.36 3.65-.59 1.89-.22 3.78-.31t3.59-.09q11.88 0 17.87 5.08 5.99 5.09 5.99 13.73t-5.86 13.77q-5.84 5.13-16.92 5.13Zm-7.11-9.36h6.39q5.41 0 8.51-2.34 3.1-2.34 3.1-7.2 0-4.68-2.92-7.02t-8.5-2.34q-3.88 0-6.58.54v18.36Z"/>
</svg>
